<?xml version="1.0" encoding="utf-8"?>
<!-- Generator: Adobe Illustrator 16.0.0, SVG Export Plug-In . SVG Version: 6.00 Build 0)  -->
<!DOCTYPE svg PUBLIC "-//W3C//DTD SVG 1.1//EN" "http://www.w3.org/Graphics/SVG/1.1/DTD/svg11.dtd">
<svg version="1.1" id="Layer_1" xmlns="http://www.w3.org/2000/svg" xmlns:xlink="http://www.w3.org/1999/xlink" x="0px" y="0px"
	 width="40px" height="40px" viewBox="0 0 40 40" enable-background="new 0 0 40 40" xml:space="preserve">
<g>
	<g>
		<path fill-rule="evenodd" clip-rule="evenodd" fill="#FFFFFF" d="M20,0C8.954,0,0,8.954,0,20s8.954,20,20,20s20-8.954,20-20
			S31.046,0,20,0z M20,38c-9.941,0-18-8.059-18-18S10.059,2,20,2c9.941,0,18,8.059,18,18S29.941,38,20,38z M78.54,13.262
			c-0.675,0.405-1.422,0.699-2.218,0.857c-0.637-0.687-1.544-1.115-2.549-1.115c-2.254,0-3.91,2.128-3.401,4.337
			c-2.902-0.147-5.476-1.553-7.197-3.69c-0.915,1.587-0.475,3.665,1.081,4.716c-0.572-0.018-1.111-0.177-1.582-0.442
			c-0.038,1.637,1.121,3.167,2.801,3.508c-0.492,0.136-1.029,0.167-1.577,0.061c0.444,1.403,1.733,2.425,3.263,2.453
			c-1.469,1.164-3.318,1.684-5.17,1.463c1.545,1.003,3.381,1.587,5.353,1.587c6.483,0,10.146-5.539,9.925-10.507
			c0.683-0.498,1.274-1.12,1.742-1.829c-0.626,0.281-1.299,0.471-2.005,0.557C77.726,14.779,78.279,14.087,78.54,13.262z M70,0
			C58.954,0,50,8.954,50,20s8.954,20,20,20s20-8.954,20-20S81.046,0,70,0z M70,38c-9.941,0-18-8.059-18-18S60.059,2,70,2
			s18,8.059,18,18S79.941,38,70,38z M127.069,22.696c-1.337-1.327-1.403-1.351-0.248-2.951c1.433-1.972,3.109-4.523,1.456-4.523
			c-0.33,0,0.525,0-2.539,0c-0.613,0-0.664,0.381-0.877,0.932c-0.797,1.982-2.266,5.002-2.838,4.607
			c-0.594-0.416-0.322-1.848-0.275-4.266c0.014-0.634,0.007-1.07-0.91-1.3c-2.497-0.619-4.397,0.601-3.52,0.773
			c1.249,0.25,1.262,3.022,0.965,4.268c-0.503,2.162-2.635-2.244-3.432-4.176c-0.186-0.46-0.246-0.835-0.931-0.835h-2.288
			c-0.5,0-0.744,0.241-0.568,0.733c0.174,0.495,2.172,5.259,4.535,7.981c2.189,2.514,3.896,2.02,5.402,2.02
			c0.486,0,0.688-0.34,0.674-0.776c-0.021-1.625,0.249-2.23,1.312-1.083c1.19,1.254,1.433,1.722,2.866,1.722h2.213
			C130.068,25.821,128.479,24.085,127.069,22.696z M120,0c-11.046,0-20,8.954-20,20s8.954,20,20,20s20-8.954,20-20S131.046,0,120,0z
			 M120,38c-9.941,0-18-8.059-18-18s8.059-18,18-18s18,8.059,18,18S129.941,38,120,38z M17.009,15.574v2.405h-3.026v4.004h3.026
			v6.021h3.973v-6.021h3.411l1.398-4.004h-4.81v-1.972h5.007v-4.004h-5.486C18.572,12.003,17.009,13.601,17.009,15.574z"/>
	</g>
</g>
</svg>
