<?xml version="1.0" encoding="utf-8"?>
<!-- Generator: Adobe Illustrator 16.0.0, SVG Export Plug-In . SVG Version: 6.00 Build 0)  -->
<!DOCTYPE svg PUBLIC "-//W3C//DTD SVG 1.1//EN" "http://www.w3.org/Graphics/SVG/1.1/DTD/svg11.dtd">
<svg version="1.1" id="Layer_1" xmlns="http://www.w3.org/2000/svg" xmlns:xlink="http://www.w3.org/1999/xlink" x="0px" y="0px"
	 width="397px" height="32px" viewBox="0 0 397 32" enable-background="new 0 0 397 32" xml:space="preserve">
<g>
	<path fill="#1A1A1A" d="M25.452,31l-2.968-7.38H6.61L3.643,31H0.674L12.951,0.986h3.193L28.419,31H25.452z M14.524,3.731
		L7.465,21.28h14.165L14.524,3.731z"/>
	<path fill="#1A1A1A" d="M50.312,31l-8.409-12.42h-6.61V31H32.73V0.986h11.197c5.171,0,9.128,3.285,9.128,8.774
		c0,5.445-3.867,8.46-8.319,8.64L53.415,31H50.312z M50.357,9.761c0-3.78-2.698-6.435-6.655-6.435h-8.409v12.915h8.409
		C47.659,16.241,50.357,13.541,50.357,9.761z"/>
	<path fill="#1A1A1A" d="M66.112,31V3.326h-9.803v-2.34h22.214v2.34H68.72V31H66.112z"/>
	<path fill="#1A1A1A" d="M109.054,31V11.471L101.455,31h-3.418l-7.554-19.529V31h-7.734V0.986h10.747l6.25,16.289l6.295-16.289
		h10.748V31H109.054z"/>
	<path fill="#1A1A1A" d="M142.301,31l-1.484-4.32H128.99L127.506,31h-8.769l11.287-30.014h9.713L151.069,31H142.301z M134.881,8.636
		l-3.822,11.295h7.645L134.881,8.636z"/>
	<path fill="#1A1A1A" d="M173.412,31l-12.681-17.369V31h-7.734V0.986h7.959l12.142,16.515V0.986h7.779V31H173.412z"/>
	<path fill="#1A1A1A" d="M206.366,31l-1.483-4.32h-11.827L191.572,31h-8.769L194.09,0.986h9.713L215.135,31H206.366z M198.947,8.636
		l-3.822,11.295h7.644L198.947,8.636z"/>
	<path fill="#1A1A1A" d="M214.206,16.016c0-9.54,7.285-15.524,16.233-15.524c6.7,0,10.747,3.555,12.816,7.29l-6.476,3.375
		c-1.124-1.98-3.418-3.825-6.341-3.825c-4.901,0-8.364,3.78-8.364,8.685c0,4.904,3.463,8.685,8.364,8.685
		c2.203,0,4.452-0.899,5.531-1.8v-2.34h-6.745v-6.795h14.479V25.69c-3.237,3.555-7.6,5.85-13.266,5.85
		C221.491,31.54,214.206,25.556,214.206,16.016z"/>
	<path fill="#1A1A1A" d="M248.231,31V0.986h21.989v6.75h-14.255v4.68h13.939v6.75h-13.939v5.085h14.255V31H248.231z"/>
	<path fill="#1A1A1A" d="M301.264,31V11.471L293.664,31h-3.417l-7.555-19.529V31h-7.734V0.986h10.747l6.251,16.289l6.295-16.289
		h10.747V31H301.264z"/>
	<path fill="#1A1A1A" d="M314.293,31V0.986h21.989v6.75h-14.255v4.68h13.939v6.75h-13.939v5.085h14.255V31H314.293z"/>
	<path fill="#1A1A1A" d="M361.435,31l-12.681-17.369V31h-7.734V0.986h7.959l12.142,16.515V0.986h7.779V31H361.435z"/>
	<path fill="#1A1A1A" d="M379.914,31V7.736h-8.409v-6.75h24.508v6.75h-8.364V31H379.914z"/>
</g>
</svg>
