<?xml version="1.0" encoding="utf-8"?>
<!-- Generator: Adobe Illustrator 16.0.0, SVG Export Plug-In . SVG Version: 6.00 Build 0)  -->
<!DOCTYPE svg PUBLIC "-//W3C//DTD SVG 1.1//EN" "http://www.w3.org/Graphics/SVG/1.1/DTD/svg11.dtd">
<svg version="1.1" id="Layer_1" xmlns="http://www.w3.org/2000/svg" xmlns:xlink="http://www.w3.org/1999/xlink" x="0px" y="0px"
	 width="20px" height="20px" viewBox="0 0 20 20" enable-background="new 0 0 20 20" xml:space="preserve">
<path fill-rule="evenodd" clip-rule="evenodd" fill="#FFFFFF" d="M17.969,19.647l-4.361-4.362c-1.422,1.071-3.19,1.706-5.107,1.706
	c-4.694,0-8.5-3.805-8.5-8.5c0-4.694,3.806-8.5,8.5-8.5s8.5,3.805,8.5,8.5c0,1.911-0.631,3.674-1.694,5.094l4.363,4.363
	c0.47,0.469,0.47,1.23,0,1.699C19.2,20.117,18.438,20.117,17.969,19.647z M8.5,1.741c-3.729,0-6.75,3.022-6.75,6.75
	c0,3.728,3.021,6.75,6.75,6.75s6.75-3.022,6.75-6.75C15.25,4.763,12.229,1.741,8.5,1.741z"/>
</svg>
